<svg xmlns="http://www.w3.org/2000/svg" xmlns:xlink="http://www.w3.org/1999/xlink" width="3500" zoomAndPan="magnify" viewBox="0 0 2625 2624.999883" height="3500" preserveAspectRatio="xMidYMid meet" version="1.0"><defs><g/><clipPath id="98b1f1ebf4"><path d="M 787.5 955 L 1837.5 955 L 1837.5 1266 L 787.5 1266 Z M 787.5 955 " clip-rule="nonzero"/></clipPath></defs><path fill="#239b83" d="M 1251.519531 1359.839844 C 1136.957031 1340.960938 984.824219 1270.820312 953.914062 1147.742188 C 941.886719 1099.808594 951.695312 1047.988281 975.753906 1005.421875 C 1026.652344 916.027344 1137.324219 901.777344 1230.046875 915.101562 C 1313.148438 926.761719 1392.730469 956.003906 1467.128906 993.945312 C 1553.191406 1039.289062 1636.105469 1095.183594 1695.882812 1173.285156 C 1704.582031 1185.128906 1712.726562 1197.527344 1719.757812 1211.410156 L 1662.015625 1244.910156 C 1587.246094 1143.855469 1408.460938 1054.464844 1288.347656 1020.410156 C 1217.464844 1000.792969 1093.648438 976.734375 1046.824219 1047.800781 C 1009.066406 1109.617188 1024.984375 1166.804688 1069.957031 1219.921875 C 1120.300781 1278.222656 1185.628906 1320.605469 1251.519531 1359.839844 Z M 1251.519531 1359.839844 " fill-opacity="1" fill-rule="nonzero"/><g clip-path="url(#98b1f1ebf4)"><path fill="#239b83" d="M 1822.660156 1075.5625 C 1812.667969 1080.003906 1802.117188 1084.632812 1791.570312 1088.890625 C 1751.222656 1105.175781 1708.097656 1121.09375 1663.679688 1135.34375 C 1634.4375 1144.597656 1604.640625 1153.296875 1574.660156 1160.699219 C 1483.789062 1183.277344 1390.507812 1195.308594 1304.265625 1185.5 C 1238.746094 1177.171875 1178.96875 1153.851562 1139.917969 1102.398438 L 1129.554688 1089.074219 C 1124.371094 1082.042969 1116.597656 1073.15625 1110.859375 1066.496094 C 1097.71875 1051.6875 1083.285156 1037.808594 1067.921875 1025.039062 C 1045.527344 1006.53125 1020.914062 990.613281 994.816406 977.84375 C 994.261719 977.660156 993.890625 977.289062 993.335938 977.105469 C 970.574219 966.183594 945.773438 959.152344 920.601562 956.746094 C 918.9375 956.558594 917.457031 956.375 915.976562 956.375 C 862.304688 952.117188 830.101562 961.925781 811.40625 972.847656 C 793.085938 983.582031 787.71875 995.242188 787.71875 995.242188 C 787.71875 1023.742188 804.746094 1048.171875 828.988281 1059.09375 C 830.65625 1059.832031 832.320312 1060.574219 833.988281 1061.128906 C 840.09375 1060.203125 846.203125 1059.832031 852.496094 1059.460938 C 862.488281 1059.09375 872.667969 1059.460938 882.660156 1060.574219 C 905.980469 1062.980469 928.746094 1068.714844 950.398438 1077.601562 C 962.613281 1082.597656 974.273438 1088.519531 985.5625 1095.367188 C 999.445312 1103.695312 1012.957031 1113.691406 1025.539062 1124.609375 C 1031.648438 1129.792969 1037.386719 1135.34375 1042.9375 1141.082031 C 1049.230469 1147.1875 1059.039062 1158.476562 1065.144531 1165.140625 C 1103.828125 1208.632812 1156.203125 1237.875 1212.097656 1252.3125 C 1339.984375 1284.144531 1488.785156 1252.496094 1623.707031 1202.15625 C 1648.320312 1193.085938 1672.195312 1183.277344 1695.699219 1173.097656 C 1734.75 1156.257812 1771.949219 1138.304688 1806.375 1120.722656 C 1816.738281 1115.355469 1826.917969 1109.804688 1837.28125 1103.878906 Z M 1822.660156 1075.5625 " fill-opacity="1" fill-rule="nonzero"/></g><g fill="#1e1e1e" fill-opacity="1"><g transform="translate(431.40237, 1559.414386)"><g><path d="M 9.625 -72.59375 C 9.625 -86.820312 12.9375 -99.757812 19.5625 -111.40625 C 26.1875 -123.050781 35.25 -132.1875 46.75 -138.8125 C 58.257812 -145.4375 71.128906 -148.75 85.359375 -148.75 C 99.585938 -148.75 112.421875 -145.472656 123.859375 -138.921875 C 135.296875 -132.367188 144.289062 -123.375 150.84375 -111.9375 C 157.40625 -100.5 160.6875 -87.664062 160.6875 -73.4375 C 160.6875 -59.207031 157.367188 -46.300781 150.734375 -34.71875 C 144.109375 -23.144531 135.007812 -14.082031 123.4375 -7.53125 C 111.863281 -0.976562 98.894531 2.296875 84.53125 2.296875 C 70.4375 2.296875 57.707031 -0.941406 46.34375 -7.421875 C 34.976562 -13.910156 26.015625 -22.875 19.453125 -34.3125 C 12.898438 -45.75 9.625 -58.507812 9.625 -72.59375 Z M 31.375 -72.8125 C 31.375 -62.34375 33.710938 -52.890625 38.390625 -44.453125 C 43.066406 -36.015625 49.484375 -29.425781 57.640625 -24.6875 C 65.796875 -19.945312 74.828125 -17.578125 84.734375 -17.578125 C 94.640625 -17.578125 103.738281 -19.984375 112.03125 -24.796875 C 120.332031 -29.609375 126.890625 -36.265625 131.703125 -44.765625 C 136.515625 -53.273438 138.921875 -62.757812 138.921875 -73.21875 C 138.921875 -83.96875 136.546875 -93.5625 131.796875 -102 C 127.054688 -110.4375 120.570312 -117.023438 112.34375 -121.765625 C 104.113281 -126.503906 95.050781 -128.875 85.15625 -128.875 C 75.25 -128.875 66.179688 -126.46875 57.953125 -121.65625 C 49.722656 -116.84375 43.234375 -110.179688 38.484375 -101.671875 C 33.742188 -93.171875 31.375 -83.550781 31.375 -72.8125 Z M 31.375 -72.8125 "/></g></g></g><g fill="#1e1e1e" fill-opacity="1"><g transform="translate(601.674797, 1559.414386)"><g><path d="M 41.84375 -48.328125 C 40.863281 -48.328125 40.195312 -48.148438 39.84375 -47.796875 C 39.5 -47.453125 39.328125 -46.863281 39.328125 -46.03125 L 39.328125 -4.609375 C 39.328125 -2.796875 38.976562 -1.570312 38.28125 -0.9375 C 37.582031 -0.3125 36.398438 0 34.734375 0 L 23.015625 0 C 21.335938 0 20.148438 -0.3125 19.453125 -0.9375 C 18.753906 -1.570312 18.40625 -2.796875 18.40625 -4.609375 L 18.40625 -141.84375 C 18.40625 -143.65625 18.753906 -144.875 19.453125 -145.5 C 20.148438 -146.132812 21.335938 -146.453125 23.015625 -146.453125 L 63.390625 -146.453125 C 83.335938 -146.453125 98.226562 -142.367188 108.0625 -134.203125 C 117.894531 -126.046875 122.8125 -114.085938 122.8125 -98.328125 C 122.8125 -87.734375 120.472656 -78.703125 115.796875 -71.234375 C 111.128906 -63.773438 104.191406 -58.09375 94.984375 -54.1875 C 85.773438 -50.28125 74.617188 -48.328125 61.515625 -48.328125 Z M 41.84375 -126.578125 C 40.863281 -126.578125 40.195312 -126.398438 39.84375 -126.046875 C 39.5 -125.703125 39.328125 -125.113281 39.328125 -124.28125 L 39.328125 -70.71875 C 39.328125 -69.875 39.5 -69.242188 39.84375 -68.828125 C 40.195312 -68.410156 40.863281 -68.203125 41.84375 -68.203125 L 62.140625 -68.203125 C 74.410156 -68.203125 83.960938 -70.640625 90.796875 -75.515625 C 97.628906 -80.398438 101.046875 -87.867188 101.046875 -97.921875 C 101.046875 -107.960938 97.734375 -115.25 91.109375 -119.78125 C 84.484375 -124.3125 74.828125 -126.578125 62.140625 -126.578125 Z M 41.84375 -126.578125 "/></g></g></g><g fill="#1e1e1e" fill-opacity="1"><g transform="translate(732.203089, 1559.414386)"><g><path d="M 102.3125 -19.875 C 103.976562 -19.875 105.160156 -19.5625 105.859375 -18.9375 C 106.554688 -18.3125 106.90625 -17.085938 106.90625 -15.265625 L 106.90625 -4.609375 C 106.90625 -2.796875 106.554688 -1.570312 105.859375 -0.9375 C 105.160156 -0.3125 103.976562 0 102.3125 0 L 23.015625 0 C 21.335938 0 20.148438 -0.3125 19.453125 -0.9375 C 18.753906 -1.570312 18.40625 -2.796875 18.40625 -4.609375 L 18.40625 -141.84375 C 18.40625 -143.65625 18.753906 -144.875 19.453125 -145.5 C 20.148438 -146.132812 21.335938 -146.453125 23.015625 -146.453125 L 102.09375 -146.453125 C 103.769531 -146.453125 104.957031 -146.132812 105.65625 -145.5 C 106.351562 -144.875 106.703125 -143.65625 106.703125 -141.84375 L 106.703125 -131.1875 C 106.703125 -129.363281 106.351562 -128.140625 105.65625 -127.515625 C 104.957031 -126.890625 103.769531 -126.578125 102.09375 -126.578125 L 41.84375 -126.578125 C 40.863281 -126.578125 40.195312 -126.398438 39.84375 -126.046875 C 39.5 -125.703125 39.328125 -125.113281 39.328125 -124.28125 L 39.328125 -85.984375 C 39.328125 -85.015625 39.5 -84.351562 39.84375 -84 C 40.195312 -83.65625 40.863281 -83.484375 41.84375 -83.484375 L 94.984375 -83.484375 C 96.660156 -83.484375 97.847656 -83.164062 98.546875 -82.53125 C 99.242188 -81.90625 99.59375 -80.6875 99.59375 -78.875 L 99.59375 -68.421875 C 99.59375 -66.742188 99.242188 -65.554688 98.546875 -64.859375 C 97.847656 -64.160156 96.660156 -63.8125 94.984375 -63.8125 L 41.84375 -63.8125 C 40.863281 -63.8125 40.195312 -63.632812 39.84375 -63.28125 C 39.5 -62.9375 39.328125 -62.347656 39.328125 -61.515625 L 39.328125 -22.171875 C 39.328125 -21.335938 39.5 -20.742188 39.84375 -20.390625 C 40.195312 -20.046875 40.863281 -19.875 41.84375 -19.875 Z M 102.3125 -19.875 "/></g></g></g><g fill="#1e1e1e" fill-opacity="1"><g transform="translate(850.389761, 1559.414386)"><g><path d="M 116.328125 -141.84375 C 116.328125 -143.65625 116.675781 -144.875 117.375 -145.5 C 118.070312 -146.132812 119.253906 -146.453125 120.921875 -146.453125 L 132.640625 -146.453125 C 134.316406 -146.453125 135.503906 -146.132812 136.203125 -145.5 C 136.898438 -144.875 137.25 -143.65625 137.25 -141.84375 L 137.25 -4.609375 C 137.25 -0.00390625 135.851562 2.296875 133.0625 2.296875 C 131.945312 2.296875 130.757812 1.84375 129.5 0.9375 C 128.25 0.03125 126.507812 -1.675781 124.28125 -4.1875 L 39.328125 -104.40625 L 39.328125 -4.609375 C 39.328125 -2.796875 38.976562 -1.570312 38.28125 -0.9375 C 37.582031 -0.3125 36.398438 0 34.734375 0 L 23.015625 0 C 21.335938 0 20.148438 -0.3125 19.453125 -0.9375 C 18.753906 -1.570312 18.40625 -2.796875 18.40625 -4.609375 L 18.40625 -141.84375 C 18.40625 -144.21875 18.753906 -145.960938 19.453125 -147.078125 C 20.148438 -148.191406 21.269531 -148.75 22.8125 -148.75 C 23.925781 -148.75 25.109375 -148.296875 26.359375 -147.390625 C 27.617188 -146.484375 29.289062 -144.773438 31.375 -142.265625 L 116.328125 -42.046875 Z M 116.328125 -141.84375 "/></g></g></g><g fill="#239b83" fill-opacity="1"><g transform="translate(1006.031227, 1559.414386)"><g><path d="M 84.9375 -17.578125 C 100.695312 -17.578125 114.71875 -22.597656 127 -32.640625 C 128.53125 -33.890625 129.710938 -34.515625 130.546875 -34.515625 C 131.109375 -34.515625 131.664062 -34.304688 132.21875 -33.890625 C 132.78125 -33.472656 133.269531 -32.984375 133.6875 -32.421875 L 139.765625 -24.0625 C 140.453125 -23.226562 140.796875 -22.25 140.796875 -21.125 C 140.796875 -20.570312 140.585938 -19.976562 140.171875 -19.34375 C 139.753906 -18.71875 139.128906 -18.054688 138.296875 -17.359375 C 130.898438 -11.085938 122.5625 -6.242188 113.28125 -2.828125 C 104.007812 0.585938 94.285156 2.296875 84.109375 2.296875 C 70.441406 2.296875 57.921875 -0.910156 46.546875 -7.328125 C 35.179688 -13.742188 26.1875 -22.671875 19.5625 -34.109375 C 12.9375 -45.546875 9.625 -58.375 9.625 -72.59375 C 9.625 -86.957031 12.9375 -99.925781 19.5625 -111.5 C 26.1875 -123.082031 35.25 -132.1875 46.75 -138.8125 C 58.257812 -145.4375 71.128906 -148.75 85.359375 -148.75 C 95.398438 -148.75 104.988281 -147.003906 114.125 -143.515625 C 123.257812 -140.035156 131.382812 -135.296875 138.5 -129.296875 C 139.894531 -128.316406 140.59375 -127.269531 140.59375 -126.15625 C 140.59375 -125.175781 140.175781 -124.0625 139.34375 -122.8125 L 133.265625 -114.65625 C 132.148438 -113.113281 131.035156 -112.34375 129.921875 -112.34375 C 129.085938 -112.34375 127.90625 -112.90625 126.375 -114.03125 C 120.375 -118.625 113.882812 -122.242188 106.90625 -124.890625 C 99.9375 -127.546875 92.613281 -128.875 84.9375 -128.875 C 75.039062 -128.875 66.007812 -126.503906 57.84375 -121.765625 C 49.6875 -117.023438 43.234375 -110.398438 38.484375 -101.890625 C 33.742188 -93.378906 31.375 -83.753906 31.375 -73.015625 C 31.375 -62.691406 33.710938 -53.273438 38.390625 -44.765625 C 43.066406 -36.265625 49.484375 -29.609375 57.640625 -24.796875 C 65.796875 -19.984375 74.894531 -17.578125 84.9375 -17.578125 Z M 84.9375 -17.578125 "/></g></g></g><g fill="#239b83" fill-opacity="1"><g transform="translate(1149.528142, 1559.414386)"><g><path d="M 9.625 -72.59375 C 9.625 -86.820312 12.9375 -99.757812 19.5625 -111.40625 C 26.1875 -123.050781 35.25 -132.1875 46.75 -138.8125 C 58.257812 -145.4375 71.128906 -148.75 85.359375 -148.75 C 99.585938 -148.75 112.421875 -145.472656 123.859375 -138.921875 C 135.296875 -132.367188 144.289062 -123.375 150.84375 -111.9375 C 157.40625 -100.5 160.6875 -87.664062 160.6875 -73.4375 C 160.6875 -59.207031 157.367188 -46.300781 150.734375 -34.71875 C 144.109375 -23.144531 135.007812 -14.082031 123.4375 -7.53125 C 111.863281 -0.976562 98.894531 2.296875 84.53125 2.296875 C 70.4375 2.296875 57.707031 -0.941406 46.34375 -7.421875 C 34.976562 -13.910156 26.015625 -22.875 19.453125 -34.3125 C 12.898438 -45.75 9.625 -58.507812 9.625 -72.59375 Z M 31.375 -72.8125 C 31.375 -62.34375 33.710938 -52.890625 38.390625 -44.453125 C 43.066406 -36.015625 49.484375 -29.425781 57.640625 -24.6875 C 65.796875 -19.945312 74.828125 -17.578125 84.734375 -17.578125 C 94.640625 -17.578125 103.738281 -19.984375 112.03125 -24.796875 C 120.332031 -29.609375 126.890625 -36.265625 131.703125 -44.765625 C 136.515625 -53.273438 138.921875 -62.757812 138.921875 -73.21875 C 138.921875 -83.96875 136.546875 -93.5625 131.796875 -102 C 127.054688 -110.4375 120.570312 -117.023438 112.34375 -121.765625 C 104.113281 -126.503906 95.050781 -128.875 85.15625 -128.875 C 75.25 -128.875 66.179688 -126.46875 57.953125 -121.65625 C 49.722656 -116.84375 43.234375 -110.179688 38.484375 -101.671875 C 33.742188 -93.171875 31.375 -83.550781 31.375 -72.8125 Z M 31.375 -72.8125 "/></g></g></g><g fill="#239b83" fill-opacity="1"><g transform="translate(1319.800568, 1559.414386)"><g><path d="M 116.328125 -141.84375 C 116.328125 -143.65625 116.675781 -144.875 117.375 -145.5 C 118.070312 -146.132812 119.253906 -146.453125 120.921875 -146.453125 L 132.640625 -146.453125 C 134.316406 -146.453125 135.503906 -146.132812 136.203125 -145.5 C 136.898438 -144.875 137.25 -143.65625 137.25 -141.84375 L 137.25 -4.609375 C 137.25 -0.00390625 135.851562 2.296875 133.0625 2.296875 C 131.945312 2.296875 130.757812 1.84375 129.5 0.9375 C 128.25 0.03125 126.507812 -1.675781 124.28125 -4.1875 L 39.328125 -104.40625 L 39.328125 -4.609375 C 39.328125 -2.796875 38.976562 -1.570312 38.28125 -0.9375 C 37.582031 -0.3125 36.398438 0 34.734375 0 L 23.015625 0 C 21.335938 0 20.148438 -0.3125 19.453125 -0.9375 C 18.753906 -1.570312 18.40625 -2.796875 18.40625 -4.609375 L 18.40625 -141.84375 C 18.40625 -144.21875 18.753906 -145.960938 19.453125 -147.078125 C 20.148438 -148.191406 21.269531 -148.75 22.8125 -148.75 C 23.925781 -148.75 25.109375 -148.296875 26.359375 -147.390625 C 27.617188 -146.484375 29.289062 -144.773438 31.375 -142.265625 L 116.328125 -42.046875 Z M 116.328125 -141.84375 "/></g></g></g><g fill="#239b83" fill-opacity="1"><g transform="translate(1475.430421, 1559.414386)"><g><path d="M 116.953125 -131.1875 C 116.953125 -129.363281 116.601562 -128.140625 115.90625 -127.515625 C 115.207031 -126.890625 114.019531 -126.578125 112.34375 -126.578125 L 73.015625 -126.578125 C 72.035156 -126.578125 71.367188 -126.398438 71.015625 -126.046875 C 70.671875 -125.703125 70.5 -125.113281 70.5 -124.28125 L 70.5 -4.609375 C 70.5 -2.796875 70.148438 -1.570312 69.453125 -0.9375 C 68.765625 -0.3125 67.582031 0 65.90625 0 L 54.1875 0 C 52.507812 0 51.320312 -0.3125 50.625 -0.9375 C 49.925781 -1.570312 49.578125 -2.796875 49.578125 -4.609375 L 49.578125 -124.28125 C 49.578125 -125.113281 49.398438 -125.703125 49.046875 -126.046875 C 48.703125 -126.398438 48.046875 -126.578125 47.078125 -126.578125 L 7.734375 -126.578125 C 6.066406 -126.578125 4.882812 -126.890625 4.1875 -127.515625 C 3.488281 -128.140625 3.140625 -129.363281 3.140625 -131.1875 L 3.140625 -141.84375 C 3.140625 -143.65625 3.488281 -144.875 4.1875 -145.5 C 4.882812 -146.132812 6.066406 -146.453125 7.734375 -146.453125 L 112.34375 -146.453125 C 114.019531 -146.453125 115.207031 -146.132812 115.90625 -145.5 C 116.601562 -144.875 116.953125 -143.65625 116.953125 -141.84375 Z M 116.953125 -131.1875 "/></g></g></g><g fill="#239b83" fill-opacity="1"><g transform="translate(1585.03914, 1559.414386)"><g><path d="M 23.21875 -6.28125 C 22.101562 -3.769531 20.988281 -2.09375 19.875 -1.25 C 18.757812 -0.414062 17.085938 0 14.859375 0 L 3.96875 0 C 1.1875 0 -0.203125 -0.90625 -0.203125 -2.71875 C -0.203125 -3.414062 0.144531 -4.601562 0.84375 -6.28125 L 63.8125 -138.921875 C 65.90625 -143.242188 67.4375 -146.066406 68.40625 -147.390625 C 69.382812 -148.710938 70.570312 -149.375 71.96875 -149.375 C 73.226562 -149.375 74.3125 -148.710938 75.21875 -147.390625 C 76.125 -146.066406 77.625 -143.242188 79.71875 -138.921875 L 143.3125 -6.28125 C 144.007812 -4.601562 144.359375 -3.414062 144.359375 -2.71875 C 144.359375 -0.90625 142.894531 0 139.96875 0 L 128.25 0 C 126.019531 0 124.378906 -0.414062 123.328125 -1.25 C 122.285156 -2.09375 121.132812 -3.769531 119.875 -6.28125 L 71.546875 -110.46875 Z M 23.21875 -6.28125 "/></g></g></g><g fill="#239b83" fill-opacity="1"><g transform="translate(1729.164107, 1559.414386)"><g><path d="M 39.328125 -4.609375 C 39.328125 -2.796875 38.976562 -1.570312 38.28125 -0.9375 C 37.582031 -0.3125 36.398438 0 34.734375 0 L 23.015625 0 C 21.335938 0 20.148438 -0.3125 19.453125 -0.9375 C 18.753906 -1.570312 18.40625 -2.796875 18.40625 -4.609375 L 18.40625 -141.84375 C 18.40625 -143.65625 18.753906 -144.875 19.453125 -145.5 C 20.148438 -146.132812 21.335938 -146.453125 23.015625 -146.453125 L 34.734375 -146.453125 C 36.398438 -146.453125 37.582031 -146.132812 38.28125 -145.5 C 38.976562 -144.875 39.328125 -143.65625 39.328125 -141.84375 Z M 39.328125 -4.609375 "/></g></g></g><g fill="#239b83" fill-opacity="1"><g transform="translate(1786.897759, 1559.414386)"><g><path d="M 116.328125 -141.84375 C 116.328125 -143.65625 116.675781 -144.875 117.375 -145.5 C 118.070312 -146.132812 119.253906 -146.453125 120.921875 -146.453125 L 132.640625 -146.453125 C 134.316406 -146.453125 135.503906 -146.132812 136.203125 -145.5 C 136.898438 -144.875 137.25 -143.65625 137.25 -141.84375 L 137.25 -4.609375 C 137.25 -0.00390625 135.851562 2.296875 133.0625 2.296875 C 131.945312 2.296875 130.757812 1.84375 129.5 0.9375 C 128.25 0.03125 126.507812 -1.675781 124.28125 -4.1875 L 39.328125 -104.40625 L 39.328125 -4.609375 C 39.328125 -2.796875 38.976562 -1.570312 38.28125 -0.9375 C 37.582031 -0.3125 36.398438 0 34.734375 0 L 23.015625 0 C 21.335938 0 20.148438 -0.3125 19.453125 -0.9375 C 18.753906 -1.570312 18.40625 -2.796875 18.40625 -4.609375 L 18.40625 -141.84375 C 18.40625 -144.21875 18.753906 -145.960938 19.453125 -147.078125 C 20.148438 -148.191406 21.269531 -148.75 22.8125 -148.75 C 23.925781 -148.75 25.109375 -148.296875 26.359375 -147.390625 C 27.617188 -146.484375 29.289062 -144.773438 31.375 -142.265625 L 116.328125 -42.046875 Z M 116.328125 -141.84375 "/></g></g></g><g fill="#239b83" fill-opacity="1"><g transform="translate(1942.527612, 1559.414386)"><g><path d="M 102.3125 -19.875 C 103.976562 -19.875 105.160156 -19.5625 105.859375 -18.9375 C 106.554688 -18.3125 106.90625 -17.085938 106.90625 -15.265625 L 106.90625 -4.609375 C 106.90625 -2.796875 106.554688 -1.570312 105.859375 -0.9375 C 105.160156 -0.3125 103.976562 0 102.3125 0 L 23.015625 0 C 21.335938 0 20.148438 -0.3125 19.453125 -0.9375 C 18.753906 -1.570312 18.40625 -2.796875 18.40625 -4.609375 L 18.40625 -141.84375 C 18.40625 -143.65625 18.753906 -144.875 19.453125 -145.5 C 20.148438 -146.132812 21.335938 -146.453125 23.015625 -146.453125 L 102.09375 -146.453125 C 103.769531 -146.453125 104.957031 -146.132812 105.65625 -145.5 C 106.351562 -144.875 106.703125 -143.65625 106.703125 -141.84375 L 106.703125 -131.1875 C 106.703125 -129.363281 106.351562 -128.140625 105.65625 -127.515625 C 104.957031 -126.890625 103.769531 -126.578125 102.09375 -126.578125 L 41.84375 -126.578125 C 40.863281 -126.578125 40.195312 -126.398438 39.84375 -126.046875 C 39.5 -125.703125 39.328125 -125.113281 39.328125 -124.28125 L 39.328125 -85.984375 C 39.328125 -85.015625 39.5 -84.351562 39.84375 -84 C 40.195312 -83.65625 40.863281 -83.484375 41.84375 -83.484375 L 94.984375 -83.484375 C 96.660156 -83.484375 97.847656 -83.164062 98.546875 -82.53125 C 99.242188 -81.90625 99.59375 -80.6875 99.59375 -78.875 L 99.59375 -68.421875 C 99.59375 -66.742188 99.242188 -65.554688 98.546875 -64.859375 C 97.847656 -64.160156 96.660156 -63.8125 94.984375 -63.8125 L 41.84375 -63.8125 C 40.863281 -63.8125 40.195312 -63.632812 39.84375 -63.28125 C 39.5 -62.9375 39.328125 -62.347656 39.328125 -61.515625 L 39.328125 -22.171875 C 39.328125 -21.335938 39.5 -20.742188 39.84375 -20.390625 C 40.195312 -20.046875 40.863281 -19.875 41.84375 -19.875 Z M 102.3125 -19.875 "/></g></g></g><g fill="#239b83" fill-opacity="1"><g transform="translate(2060.714284, 1559.414386)"><g><path d="M 39.328125 -4.609375 C 39.328125 -2.796875 38.976562 -1.570312 38.28125 -0.9375 C 37.582031 -0.3125 36.398438 0 34.734375 0 L 23.015625 0 C 21.335938 0 20.148438 -0.3125 19.453125 -0.9375 C 18.753906 -1.570312 18.40625 -2.796875 18.40625 -4.609375 L 18.40625 -141.84375 C 18.40625 -143.65625 18.753906 -144.875 19.453125 -145.5 C 20.148438 -146.132812 21.335938 -146.453125 23.015625 -146.453125 L 62.96875 -146.453125 C 102.726562 -146.453125 122.609375 -131.316406 122.609375 -101.046875 C 122.609375 -91.003906 120.09375 -82.738281 115.0625 -76.25 C 110.039062 -69.769531 103.066406 -64.992188 94.140625 -61.921875 L 130.140625 -6.28125 C 131.253906 -4.738281 131.8125 -3.410156 131.8125 -2.296875 C 131.8125 -1.460938 131.425781 -0.867188 130.65625 -0.515625 C 129.882812 -0.171875 128.734375 0 127.203125 0 L 114.859375 0 C 112.484375 0 110.738281 -0.347656 109.625 -1.046875 C 108.507812 -1.742188 107.1875 -3.28125 105.65625 -5.65625 L 67.15625 -66.734375 C 66.320312 -67.859375 65.90625 -68.835938 65.90625 -69.671875 C 65.90625 -70.785156 66.953125 -71.410156 69.046875 -71.546875 C 90.109375 -73.785156 100.640625 -83.203125 100.640625 -99.796875 C 100.640625 -109.285156 97.328125 -116.222656 90.703125 -120.609375 C 84.078125 -125.003906 74.484375 -127.203125 61.921875 -127.203125 L 41.84375 -127.203125 C 40.863281 -127.203125 40.195312 -127.023438 39.84375 -126.671875 C 39.5 -126.328125 39.328125 -125.664062 39.328125 -124.6875 Z M 39.328125 -4.609375 "/></g></g></g></svg>